<svg width="513" height="513" viewBox="0 0 513 513" fill="none" xmlns="http://www.w3.org/2000/svg">
<g clip-path="url(#clip0_1445_436)">
<path d="M470.329 39.648C417.823 75.5288 359.116 125.685 321.141 166.967C302.735 187.222 274.448 222.332 262.629 239.693L259.723 244.13L250.616 235.835L241.316 227.733L255.848 205.549C272.123 181.049 291.304 144.783 296.729 128.386C301.185 114.689 301.379 94.6267 296.923 86.5246C295.179 83.2451 290.529 78.4225 286.46 75.9146C266.504 63.5685 212.06 76.3004 172.148 102.729C156.26 113.146 134.173 134.559 121.191 151.92C108.598 168.51 91.1602 201.498 83.4102 222.91C71.7852 255.319 61.7102 309.526 63.4539 330.939C63.8414 338.269 64.8102 339.62 68.4914 340.198C76.0477 341.356 77.9852 337.691 79.1477 319.943C81.4727 284.641 94.2602 237.957 110.729 204.198C137.466 149.798 178.348 113.532 230.079 98.6778C281.81 83.8239 289.56 94.8196 263.21 145.94C252.554 166.774 224.848 209.407 221.941 209.407C220.585 209.407 210.898 201.691 200.048 192.238C177.185 172.561 173.504 170.247 166.723 171.983C160.716 173.526 154.129 181.435 154.129 187.03C154.129 193.781 158.779 198.604 182.223 216.352C194.429 225.611 204.504 233.713 204.504 234.485C204.504 235.064 193.46 249.532 180.091 266.508C166.529 283.291 155.291 297.373 155.098 297.759C154.71 298.144 148.898 295.251 141.923 291.393C127.198 283.291 111.891 280.59 107.823 285.22C103.948 289.849 106.079 295.058 112.473 296.794C122.935 300.074 136.691 306.439 139.598 309.719C142.116 312.42 140.179 315.506 120.029 338.655C107.629 352.93 83.0227 380.516 65.1977 400C8.81641 461.923 8.81641 461.923 8.81641 467.132C8.81641 472.726 18.3102 483.336 23.3477 483.336C28.1914 483.336 37.1039 478.127 40.9789 473.112C43.1102 470.604 59.9664 451.12 78.5664 430.093C97.1664 408.874 123.323 378.78 136.498 363.154C159.554 335.569 160.523 334.797 163.235 338.655C168.079 345.6 175.248 364.698 180.285 384.374C185.129 403.279 188.035 408.102 195.204 408.102C199.66 408.102 206.441 401.35 206.441 397.106C206.441 385.917 189.585 342.899 179.123 327.659C174.085 320.136 173.698 318.4 175.829 315.506C177.185 313.577 188.81 298.144 201.598 281.361C214.385 264.578 225.041 250.496 225.235 250.11C225.623 249.339 234.535 255.126 243.835 262.264C247.129 264.771 246.935 265.736 240.735 278.275C213.223 332.482 207.216 392.283 224.848 435.495C234.148 458.065 244.804 467.132 260.11 465.396C275.804 463.659 290.723 448.998 309.71 416.976C320.56 398.071 334.704 366.434 333.929 361.997C333.154 356.981 294.404 325.152 288.979 325.152C285.685 325.152 283.554 327.659 279.485 335.761C276.579 341.742 274.254 348.108 274.254 350.23C274.254 356.21 281.035 355.052 285.879 348.3L289.948 342.513L303.51 353.509C310.873 359.489 316.879 365.276 316.879 366.241C316.879 367.205 311.648 378.201 305.254 390.547C291.498 416.976 276.773 437.231 266.31 444.176C259.141 448.805 258.56 448.998 253.91 445.912C247.71 441.861 243.835 434.144 239.185 416.397C232.985 391.512 234.923 356.21 244.223 328.045C248.679 314.542 264.954 280.783 266.891 280.783C267.86 280.783 286.46 294.286 308.354 310.683C330.054 327.081 349.041 340.584 350.398 340.584C353.885 340.584 357.566 336.533 357.566 332.868C357.566 331.132 359.504 328.045 361.635 325.923C370.354 318.207 373.841 299.688 368.998 287.149C364.348 274.995 347.879 263.614 334.704 263.421C326.179 263.421 315.329 268.244 308.16 274.995L302.348 280.59L290.335 270.559L278.516 260.527L281.616 255.126C288.591 243.166 318.235 208.056 339.741 185.872C377.716 146.905 431.579 102.536 481.954 68.97C493.191 61.4466 502.879 53.9232 503.654 52.187C505.979 45.821 504.623 40.0338 499.779 35.0182C492.223 27.6877 486.216 28.6522 470.329 39.648ZM347.685 283.676C355.629 290.621 358.535 299.881 355.048 308.176C349.623 320.908 348.073 320.715 330.829 305.668C322.11 298.144 314.941 291.2 314.941 290.428C314.941 289.464 317.654 286.57 320.948 283.869C328.891 277.117 339.548 277.117 347.685 283.676Z" fill="black"/>
<path d="M380.815 208.831C380.815 210.76 383.915 214.811 387.79 217.897C396.121 224.456 406.002 239.31 406.002 245.483C406.002 250.499 399.027 257.636 394.183 257.636C388.952 257.636 381.008 250.113 374.808 239.117C368.415 228.121 363.958 225.228 357.565 228.7C351.752 231.787 352.721 240.275 360.083 251.077C376.94 275.577 401.933 279.435 415.108 259.758C423.827 247.026 419.371 234.101 400.19 216.547C388.177 205.551 380.815 202.658 380.815 208.831Z" fill="black"/>
<path d="M200.63 293.713C188.618 298.15 184.936 313.582 193.849 322.263C198.305 326.893 201.405 327.857 209.349 327.279C214.386 326.7 223.88 316.476 223.88 311.46C223.88 299.5 211.286 289.855 200.63 293.713Z" fill="black"/>
</g>
<defs>
<clipPath id="clip0_1445_436">
<rect width="496" height="453.333" fill="white" transform="translate(8.82422 30.0039)"/>
</clipPath>
</defs>
</svg>
